<svg class="logo" viewBox="0 0 390 375" fill="none" xmlns="http://www.w3.org/2000/svg" width="auto" height="auto">
	<g id="Dark.Light (1) 1">
		<g id="Lines">
			<line class="line" id="Test Line" x1="105.477" y1="49.33" x2="188.477" y2="23.33" stroke="#EF4444"
				stroke-width="8" />
			<line class="line" id="Line 1" x1="187.476" y1="21.3158" x2="272.476" y2="45.3158" stroke="#EF4444"
				stroke-width="8" />
			<line class="line" id="Line 2" x1="275.276" y1="46.8025" x2="336.276" y2="111.802" stroke="#EF4444"
				stroke-width="8" />
			<line class="line" id="Line 3" x1="336.66" y1="112.447" x2="361.66" y2="187.447" stroke="#EF4444"
				stroke-width="8" />
			<line class="line" id="Line 4" x1="360.692" y1="187.446" x2="336.692" y2="278.446" stroke="#EF4444"
				stroke-width="8" />
			<line class="line" id="Line 5" x1="326.731" y1="219.745" x2="335.731" y2="280.745" stroke="#EF4444"
				stroke-width="8" />
			<line class="line" id="Line 6" x1="275.685" y1="49.4729" x2="259.685" y2="106.473" stroke="#EF4444"
				stroke-width="8" />
			<line class="line" id="Line 7" x1="188.339" y1="26.1272" x2="124.339" y2="102.127" stroke="#EF4444"
				stroke-width="8" />
			<line class="line" id="Line 8" x1="105.67" y1="50.4762" x2="121.67" y2="101.476" stroke="#EF4444"
				stroke-width="8" />
			<line class="line" id="Line 9" x1="188.301" y1="23.8293" x2="260.301" y2="103.829" stroke="#EF4444"
				stroke-width="8" />
			<line class="line" id="Line 10" x1="123.013" y1="98.25" x2="259.013" y2="99.25" stroke="#EF4444"
				stroke-width="8" />
			<line class="line" id="Line 11" x1="105.26" y1="52.2143" x2="52.2601" y2="107.214" stroke="#EF4444"
				stroke-width="8" />
			<line class="line" id="Line 12" x1="119.128" y1="101.745" x2="51.1283" y2="106.745" stroke="#EF4444"
				stroke-width="8" />
			<line class="line" id="Line 13" x1="120.534" y1="101.157" x2="192.534" y2="232.157" stroke="#EF4444"
				stroke-width="8" />
			<line class="line" id="Line 14" x1="259.545" y1="104.821" x2="191.545" y2="232.821" stroke="#EF4444"
				stroke-width="8" />
			<line class="line" id="Line 15" x1="259.514" y1="103.122" x2="324.514" y2="215.122" stroke="#EF4444"
				stroke-width="8" />
			<line class="line" id="Line 16" x1="333.746" y1="112.118" x2="326.746" y2="216.118" stroke="#EF4444"
				stroke-width="8" />
			<line class="line" id="Line 17" x1="258.206" y1="98.2621" x2="334.206" y2="107.262" stroke="#EF4444"
				stroke-width="8" />
			<line class="line" id="Line 18" x1="359.237" y1="188.237" x2="328.237" y2="219.237" stroke="#EF4444"
				stroke-width="8" />
			<line class="line" id="Line 19" x1="360.716" y1="186.657" x2="361.716" y2="191.657" stroke="#EF4444"
				stroke-width="8" />
			<line class="line" id="Line 20" x1="186.823" y1="230.259" x2="324.823" y2="216.259" stroke="#EF4444"
				stroke-width="8" />
			<line class="line" id="Line 21" x1="58.1702" y1="217.258" x2="191.17" y2="230.258" stroke="#EF4444"
				stroke-width="8" />
			<line class="line" id="Line 22" x1="22.1239" y1="185.659" x2="59.1239" y2="216.659" stroke="#EF4444"
				stroke-width="8" />
			<line class="line" id="Line 23" x1="53.6291" y1="106.639" x2="22.6291" y2="185.639" stroke="#EF4444"
				stroke-width="8" />
			<line class="line" id="Line 24" x1="52.7441" y1="106.856" x2="61.7441" y2="215.856" stroke="#EF4444"
				stroke-width="8" />
			<line class="line" id="Line 25" x1="119.574" y1="103.766" x2="64.5735" y2="216.766" stroke="#EF4444"
				stroke-width="8" />
			<line class="line" id="Line 26" x1="21.6602" y1="186.447" x2="50.6602" y2="273.447" stroke="#EF4444"
				stroke-width="8" />
			<line class="line" id="Line 27" x1="63.6996" y1="218.417" x2="50.6996" y2="271.417" stroke="#EF4444"
				stroke-width="8" />
			<line class="line" id="Line 28" x1="64.5625" y1="219.212" x2="122.563" y2="334.212" stroke="#EF4444"
				stroke-width="8" />
			<line class="line" id="Line 29" x1="49.1203" y1="273.656" x2="121.12" y2="333.656" stroke="#EF4444"
				stroke-width="8" />
			<line class="line" id="Line 30" x1="188.475" y1="231.941" x2="121.475" y2="336.941" stroke="#EF4444"
				stroke-width="8" />
			<line class="line" id="Line 31" x1="188.446" y1="229.014" x2="263.446" y2="339.014" stroke="#EF4444"
				stroke-width="8" />
			<line class="line" id="Line 32" x1="325.563" y1="217.788" x2="264.563" y2="338.788" stroke="#EF4444"
				stroke-width="8" />
			<line class="line" id="Line 33" x1="334.157" y1="278.313" x2="267.157" y2="337.313" stroke="#EF4444"
				stroke-width="8" />
			<line class="line" id="Line 34" x1="124" y1="333.25" x2="263" y2="333.25" stroke="#EF4444"
				stroke-width="8" />
			<line class="line" id="Line 35" x1="124.568" y1="333.345" x2="194.568" y2="357.345" stroke="#EF4444"
				stroke-width="8" />
			<line class="line" id="Line 36" x1="263.525" y1="338.669" x2="193.525" y2="360.669" stroke="#EF4444"
				stroke-width="8" />
		</g>
		<g id="circles">
			<circle class="circle" id="c1" cx="192.5" cy="28.5" r="22.5" fill="#EF4444" />
			<circle class="circle" id="c11" cx="258.5" cy="104.5" r="21.5" fill="#EF4444" />
			<circle class="circle" id="c4" cx="190.5" cy="233.5" r="22.5" fill="#EF4444" />
			<circle class="circle" id="c5" cx="123" cy="336" r="23" fill="#EF4444" />
			<circle class="circle" id="c2" cx="105" cy="50" r="17" fill="#EF4444" />
			<circle class="circle" id="c6" cx="334" cy="109" r="17" fill="#EF4444" />
			<circle class="circle" id="c7" cx="21.5" cy="188.5" r="17.5" fill="#EF4444" />
			<circle class="circle" id="c8" cx="261.5" cy="339.5" r="18.5" fill="#EF4444" />
			<circle class="circle" id="c9" cx="325" cy="221" r="17" fill="#EF4444" />
			<circle class="circle" id="c10" cx="123" cy="102" r="20" fill="#EF4444" />
			<circle class="circle" id="c3" cx="272.5" cy="49.5" r="13.5" fill="#EF4444" />
			<circle class="circle" id="c17" cx="49.5" cy="276.5" r="14.5" fill="#EF4444" />
			<circle class="circle" id="c15" cx="193.5" cy="358.5" r="13.5" fill="#EF4444" />
			<circle class="circle" id="c16" cx="334.5" cy="277.5" r="15.5" fill="#EF4444" />
			<circle class="circle" id="c12" cx="359.5" cy="189.5" r="13.5" fill="#EF4444" />
			<circle class="circle" id="c13" cx="55" cy="108" r="14" fill="#EF4444" />
			<circle class="circle" id="c14" cx="63.5" cy="218.5" r="15.5" fill="#EF4444" />
		</g>
	</g>
</svg>